<?xml version="1.0" encoding="UTF-8"?>
<!DOCTYPE svg PUBLIC "-//W3C//DTD SVG 1.1//EN" "http://www.w3.org/Graphics/SVG/1.1/DTD/svg11.dtd">
<!-- Creator: CorelDRAW 2021 (64-Bit) -->
<svg xmlns="http://www.w3.org/2000/svg" xml:space="preserve" width="210mm" height="297mm" version="1.1" style="shape-rendering:geometricPrecision; text-rendering:geometricPrecision; image-rendering:optimizeQuality; fill-rule:evenodd; clip-rule:evenodd"
viewBox="0 0 21000 29700"
 xmlns:xlink="http://www.w3.org/1999/xlink"
 xmlns:xodm="http://www.corel.com/coreldraw/odm/2003">
 <defs>
  <style type="text/css">
   <![CDATA[
    .fil0 {fill:url(#id0);fill-rule:nonzero}
   ]]>
  </style>
  <radialGradient id="id0" gradientUnits="objectBoundingBox" cx="50%" cy="49.9995%" r="50%" fx="50%" fy="49.9995%">
   <stop offset="0" style="stop-opacity:1; stop-color:white"/>
   <stop offset="1" style="stop-opacity:1; stop-color:#F500BD"/>
  </radialGradient>
 </defs>
 <g id="Capa_x0020_1">
  <metadata id="CorelCorpID_0Corel-Layer"/>
  <path class="fil0" d="M9985.88 15634.11c-21.72,-5.53 -44.15,-9.05 -64.95,-16.8 -92.16,-34.53 -179.14,-79.41 -261.48,-132.8 -107.78,-69.89 -204.42,-152.44 -286.84,-251.02 -90,-107.72 -161.29,-226.24 -216.64,-354.67 -17.09,-39.59 -30.7,-79.79 -29.77,-123.21 1.93,-90.22 48.01,-153.13 126.26,-194.86 25.13,-13.35 51.57,-23.94 80.41,-26.93 35.95,-3.68 68.11,4.98 96.26,28 39.35,32.22 72.67,70.27 101.05,111.78 25.67,37.51 49.25,76.87 69.43,117.45 28.84,58 6.26,114.54 -41.44,151.21 -7.04,5.45 -14.23,10.82 -21.81,15.43 -21.57,13.04 -48.01,7.59 -62.24,-12.36 -13.91,-19.56 -10.51,-45.34 8.43,-61.52 8.35,-7.14 17.32,-13.58 25.67,-20.72 11.91,-10.13 14.46,-23.09 7.66,-36.52 -10.37,-20.25 -20.96,-40.5 -33.33,-59.61 -28.61,-44.03 -60.46,-85.54 -97.57,-123.13 -18.71,-18.95 -38.35,-23.55 -63.32,-13.5 -30.08,12.12 -57.76,27.16 -77.86,53.01 -31.16,40.12 -30.93,84.77 -14.31,129.73 23.97,64.6 55.05,126.05 90.08,185.43 61.31,104.03 134.6,198.77 224.14,280.71 112.42,102.88 240.07,182.13 380.94,240.51 22.11,9.21 45.54,17.03 69.12,20.49 54.82,8.13 95.71,-15.81 124.32,-61.23 8.66,-13.8 14.77,-29.3 21.19,-44.42 8.66,-20.09 4.4,-38.12 -11.37,-53.09 -15.08,-14.26 -30.08,-28.69 -46.16,-41.73 -40.2,-32.61 -82.18,-62.68 -128.5,-86.46 -29.61,-15.11 -40.59,-12.74 -60.61,13.43 -4.64,6.06 -9.05,12.35 -14.46,17.64 -16,15.57 -40.52,17.03 -58.45,3.99 -17.94,-12.97 -25.59,-37.44 -14.54,-56.31 21.88,-37.44 50.18,-68.13 95.64,-77.49 24.05,-4.91 47.24,-2.3 69.9,6.83 47.16,19.18 90.46,45.42 130.12,76.49 34.87,27.39 68.12,57.23 99.51,88.53 36.88,36.9 44.07,82.55 28.68,131.34 -18.4,58.31 -49.87,107.87 -102.29,142.16 -25.2,16.49 -52.88,26.7 -82.65,31.46 -3.25,0.53 -6.34,1.76 -9.51,2.6 -16.39,0.16 -32.55,0.16 -48.71,0.16z"/>
  <path class="fil0" d="M9827.07 14337.65c270.69,4.68 510.91,206.07 558.62,469.67 6.49,35.9 8.58,72.81 10.51,109.4 1.31,24.47 -17.24,43.65 -40.28,46.18 -22.73,2.54 -44.07,-10.97 -49.79,-32.52 -2.32,-8.9 -2.94,-18.34 -3.17,-27.55 -2.25,-91.22 -28.69,-175.22 -79.02,-251.25 -57.6,-87.07 -135.54,-150.21 -233.42,-188.57 -56.36,-22.1 -115.12,-31.53 -175.51,-33.76 -31.39,-1.15 -49.94,-20.1 -49.02,-47.87 0.93,-26.85 21.96,-44.04 53.35,-43.73 2.63,0 5.18,0 7.73,0z"/>
  <path class="fil0" d="M9825.91 14605.48c140.8,4.83 264.12,106.33 294.35,247.49 4.33,20.1 5.49,40.96 6.49,61.53 1.32,26.77 -17.63,47.33 -42.91,48.63 -26.44,1.31 -47.62,-17.03 -48.86,-44.26 -1.32,-28.08 -5.65,-55.16 -15.62,-81.55 -30.08,-79.48 -111.18,-137.4 -196.77,-140.24 -5.49,-0.16 -11.06,-0.46 -16.55,-1.31 -25.59,-3.99 -41.44,-23.55 -39.89,-48.79 1.39,-23.55 20.64,-41.43 45.77,-42.2 4.64,-0.23 9.36,0.39 13.99,0.7z"/>
 </g>
</svg>
